<?xml version="1.0" encoding="UTF-8"?>
<!DOCTYPE svg PUBLIC "-//W3C//DTD SVG 1.1//EN" "http://www.w3.org/Graphics/SVG/1.1/DTD/svg11.dtd">
<svg version="1.1" xmlns="http://www.w3.org/2000/svg" xmlns:xlink="http://www.w3.org/1999/xlink" x="0" y="0" width="4546.24" height="528.549" viewBox="0, 0, 4546.24, 528.549">
  <defs>
    <linearGradient id="Gradient_1" gradientUnits="userSpaceOnUse" x1="400" y1="181.913" x2="400" y2="465.587">
      <stop offset="0" stop-color="#FBF121"/>
      <stop offset="1" stop-color="#F0AE77"/>
    </linearGradient>
  </defs>
  <g id="Facebook_background" transform="translate(-135.726, -148.726)">
    <g>
      <path d="M400,676.275 C254.598,676.275 136.726,558.403 136.726,413 C136.726,267.598 254.598,149.726 400,149.726 C545.403,149.726 663.275,267.598 663.275,413 C663.275,558.403 545.403,676.275 400,676.275 z" fill="#1F0060"/>
      <path d="M400,676.275 C254.598,676.275 136.726,558.403 136.726,413 C136.726,267.598 254.598,149.726 400,149.726 C545.403,149.726 663.275,267.598 663.275,413 C663.275,558.403 545.403,676.275 400,676.275 z" fill-opacity="0" stroke="#000000" stroke-width="0.225"/>
    </g>
  </g>
  <g id="Background" transform="translate(-135.726, -148.726)">
    <g>
      <path d="M400,181.913 C529.462,181.913 634.412,286.658 634.412,415.867 C634.411,428.768 633.361,441.667 631.249,454.394 C630.409,459.452 630.119,460.633 629.104,465.587 L170.896,465.587 C167.28,449.262 165.694,432.569 165.588,415.867 C165.588,286.658 270.538,181.913 400,181.913 z" fill="url(#Gradient_1)"/>
      <path d="M400,181.913 C529.462,181.913 634.412,286.658 634.412,415.867 C634.411,428.768 633.361,441.667 631.249,454.394 C630.409,459.452 630.119,460.633 629.104,465.587 L170.896,465.587 C167.28,449.262 165.694,432.569 165.588,415.867 C165.588,286.658 270.538,181.913 400,181.913 z" fill-opacity="0" stroke="#000000" stroke-width="0.225"/>
    </g>
  </g>
  <g id="Layer_4" transform="translate(-135.726, -148.726)">
    <g>
      <path d="M409.224,438.405 C409.224,438.405 420.032,412.635 424.274,375.834 C431.834,310.107 402.65,173.548 399.188,163.653 C392.571,144.744 361.164,277.96 361.164,302.913 C361.164,305.203 371.848,232.75 369.701,234.573 C355.761,246.398 255.119,445.835 249.957,450.803 C244.796,455.77 291.362,459.611 325.661,451.586 C342.372,447.682 350.495,442.287 352.028,443.619 C360.989,451.378 406.407,441.113 409.224,438.405" fill="#FFFFFF" id="path3158"/>
      <path d="M409.224,438.405 C409.224,438.405 420.032,412.635 424.274,375.834 C431.834,310.107 402.65,173.548 399.188,163.653 C392.571,144.744 361.164,277.96 361.164,302.913 C361.164,305.203 371.848,232.75 369.701,234.573 C355.761,246.398 255.119,445.835 249.957,450.803 C244.796,455.77 291.362,459.611 325.661,451.586 C342.372,447.682 350.495,442.287 352.028,443.619 C360.989,451.378 406.407,441.113 409.224,438.405 z" fill-opacity="0" stroke="#231F20" stroke-width="1.25" id="path3162"/>
      <path d="M371.71,461.263 C369.56,459.584 364.689,454.018 361.72,454.149 C361.037,454.186 354.04,454.583 354.04,454.583 L346.643,453.84 C355.204,453.456 398.616,446.02 398.616,446.02 C398.616,446.02 380.865,459.709 378.264,462.214 C374.779,465.558 373.86,462.941 371.71,461.263 M425.332,469.052 C421.008,468.924 380.589,469.684 377.457,467.229 L404.596,444.426 L412.051,442.828 C412.051,442.828 413.045,434.978 411.846,436.061 C404.666,442.589 360.013,449.901 357.715,447.036 C351.273,439.004 356.893,341.403 361.138,313.352 C361.328,312.111 363.28,293.939 363.28,293.939 C355.445,297.965 347.14,436.387 349.236,440.736 C352.084,446.649 300.736,454.98 290.052,455.471 C288.225,455.558 293.662,457.906 302.782,459.171 C324.049,462.154 344.047,467.243 342.378,467.586 C319.337,472.254 272.825,456.648 256.716,453.066 C252.063,452.033 243.73,453.412 243.8,455.326 C244.029,461.999 252.548,477.629 260.205,484.281 C260.205,484.281 298.99,484.631 317.405,484.994 C356.951,485.781 388.281,487.386 424.583,479.431 C427.427,478.809 430.233,469.203 425.332,469.052" fill="#231F20" id="path3166"/>
    </g>
    <g>
      <path d="M537.323,439.53 C538.439,437.732 540.197,419.828 540.197,409.71 C540.197,392.68 526.426,353.324 515.965,342.295 C513.734,339.962 496.615,398.397 486.815,422.77 C484.989,427.286 481.014,432.59 481.064,435.233 C490.663,438.674 485.859,440.317 481.168,441.608 C477.949,442.5 476.013,443.579 473.868,443.579 C468.622,443.579 479.766,444.697 483.404,448.519 C487.052,452.353 487.284,454.348 492.102,455.97 C502.208,459.382 508.387,455.431 512.418,455.431 C519.795,455.431 519.882,471.112 531.321,463.848 C543.389,456.189 545.575,441.917 545.575,441.917 C545.575,441.917 535.921,441.792 537.323,439.53" fill="#FFFFFF" id="path3174"/>
      <path d="M537.459,439.505 C538.575,437.708 540.333,419.804 540.333,409.685 C540.333,392.656 526.561,353.299 516.101,342.271 C513.869,339.937 496.751,398.373 486.951,422.745 C485.125,427.262 481.149,432.566 481.199,435.208 C490.799,438.65 485.995,440.293 481.304,441.584 C478.084,442.476 476.149,443.554 474.004,443.554 C468.758,443.554 479.901,444.673 483.54,448.495 C487.188,452.328 487.42,454.324 492.238,455.946 C502.343,459.358 508.523,455.406 512.553,455.406 C519.931,455.406 520.017,471.088 531.457,463.824 C543.525,456.165 545.711,441.893 545.711,441.893 C545.711,441.893 536.056,441.767 537.459,439.505 z" fill-opacity="0" stroke="#231F20" stroke-width="1.25" id="path3178"/>
      <path d="M511.627,441.609 C512.392,441.577 505.593,441.055 497.273,441.055 C487.341,441.055 477.313,439.538 484.299,439.538 C497.619,439.538 535.454,438.182 551.288,436.539 C554.63,436.194 554.321,442.073 549.065,447.614 C543.796,453.148 539.452,465.456 529.948,468.009 C520.457,470.573 520.029,470.976 507.829,468.901 C492.264,466.248 480.291,466.654 474.467,461.019 C472.795,459.405 463.574,445.989 468.792,441.861 C471.302,439.887 476.288,440.8 477.509,440.8 C480.701,440.8 484.499,449.725 488.83,454.637 C494.318,460.879 512.488,459.61 516.892,442.648 C517.552,440.128 522.566,435.787 520.931,442.727 C516.946,459.437 524.274,463.126 526.368,462.321 C530.813,460.62 541.378,457.398 543.004,451.871 C544.607,446.33 539.261,438.815 541.178,442.486" fill="#110F0D" id="path3182"/>
    </g>
    <path d="M358.287,497.089 C352.393,499.857 351.462,500.686 346.492,500.686 C341.518,500.686 349.707,504.709 342.203,505.401 C334.692,506.084 336.56,514.087 340.86,514.546 C347.46,515.242 349.707,511.774 355.605,509.552 C361.502,507.339 364.455,506.509 365.795,512.324 C367.138,518.143 357.488,522.303 362.579,522.303 C367.674,522.303 374.093,521.144 373.036,525.625 C371.979,530.094 375.182,529.139 377.058,529.139 C378.938,529.139 390.596,526.868 382.685,535.042 C374.779,543.22 370.03,543.729 367.674,541.294 C365.315,538.864 359.505,539.477 359.505,544.187 C359.505,548.893 351.183,545.709 352.926,547.518 C354.673,549.31 355.891,551.669 359.505,551.669 C363.116,551.669 366.468,555.137 362.313,559.427 C358.154,563.716 344.616,568.568 344.616,572.178 C344.616,575.771 330.5,573.407 333.595,576.604 C336.689,579.806 342.736,577.159 344.075,581.31 C345.418,585.471 356.948,584.641 363.652,577.713 C370.353,570.794 374.645,567.463 377.598,570.506 C380.543,573.553 393.283,569.539 388.051,564.133 C382.826,558.731 380.188,549.172 385.86,549.172 C391.536,549.172 397.704,553.887 400.387,548.622 C401.658,546.125 407.12,544.708 409.504,545.3 C420.763,548.072 407.144,539.994 408.419,541.294 C410.827,543.795 397.168,534.212 408.427,529.139 C413.841,526.709 426.439,532.978 430.146,529.139 C433.862,525.309 438.469,533.149 438.469,527.176 C438.469,521.186 417.068,527.139 412.182,524.246 C408.298,521.932 411.912,513.433 403.598,518.418 C399.124,521.115 402.448,512.512 399.983,509.969 C398.338,508.268 402.041,503.604 388.317,511.491 C378.901,516.922 376.259,521.194 373.036,517.864 C370.353,515.088 365.561,508.639 369.655,506.901 C373.843,505.117 370.894,495.972 370.894,495.972 C365.528,495.972 363.124,494.817 358.287,497.089" fill="#80CDF2" id="path3194"/>
    <path d="M472.713,467.371 C469.037,467.371 474.257,470.093 465.999,472.79 C458.776,475.15 461.485,476.926 469.037,478.352 C469.037,478.352 473.349,478.177 472.189,481.059 C470,486.493 477.3,481.148 481.588,485.079 C485.469,488.629 483.54,495.057 489.979,498.064 C491.783,498.902 491.434,501.067 489.094,504.45 C485.407,509.759 499.273,512.73 489.214,515.079 C483.156,516.49 470.9,519.446 482.733,523.903 C488.376,526.031 491.263,525.612 489.214,529.955 C487.161,534.308 498.245,529.603 499.153,528.768 C499.153,528.768 492.315,520.868 501.086,520.868 C509.853,520.868 526.043,520.48 509.853,512.36 C504.435,509.645 525.372,508.096 522.749,503.615 C520.61,499.958 520.707,498.725 524.301,498.725 C526.369,498.725 527.491,496.383 527.491,491.905 C527.491,489.393 530.992,490.068 531.779,489.091 C533.6,486.841 530.941,474.29 527.084,477.815 C523.214,481.358 507.792,486.536 507.792,496.404 C507.792,498.313 497.573,495.26 498.113,493.11 C499.766,486.546 492.389,478.963 498.373,477.989 C505.684,476.809 519.085,478.483 501.85,469.489 C492.299,464.496 476.927,467.371 472.713,467.371" fill="#80CDF2" id="path3198"/>
    <path d="M318.644,535.515 C324.634,529.64 312.993,528.212 314.971,524.93 C318.835,518.515 312.315,517.366 310.095,517.938 C307.608,518.577 309.904,506.909 324.732,506.909 C327.189,506.909 335.192,499.921 330.366,498.075 C325.304,496.145 317.949,490.307 316.378,490.016 C310.188,488.892 307.981,491.203 304.461,492.933 C299.953,495.145 286.079,487.473 285.553,490.489 C285.045,493.423 253.179,488 249.645,491.469 C247.841,493.228 276.22,495.875 273.297,504.693 C272.509,507.083 252.912,508.116 257.529,512.635 C264.706,519.669 246.832,521.764 259.406,527.864 C264.342,530.262 267.667,533.017 274.047,529.64 C276.754,528.204 296.543,529.64 296.483,536.366 C296.445,540.408 276.22,543.686 276.22,547.723 C276.22,549.881 290.726,549.416 289.815,552.08 C289.053,554.342 314.971,554.35 324.168,549.383 C327.625,547.528 332.722,545.557 332.917,544.13 C333.988,536.329 317.013,537.105 318.644,535.515" fill="#80CDF2" id="path3202"/>
    <path d="M815.823,465.5 C815.823,507.5 813.823,513.5 791.023,515.5 L777.823,516.7 C775.423,519.1 776.223,525.5 778.623,526.7 C802.223,525.9 815.823,525.5 833.023,525.5 L869.023,525.5 C904.623,525.5 940.223,525.9 976.223,526.7 C981.423,515.9 991.423,485.1 994.223,471.1 C992.623,467.5 987.023,466.3 984.223,468.3 C973.823,489.1 963.023,503.1 955.823,507.1 C947.023,511.5 935.423,513.1 904.623,513.1 C869.423,513.1 861.023,508.7 856.223,503.9 C849.823,497.1 848.623,483.5 848.623,462.3 L848.623,405.9 C848.623,395.5 849.823,395.1 861.823,395.1 L885.023,395.1 C900.623,395.1 910.223,395.5 915.823,397.1 C923.823,399.1 926.623,405.1 928.223,412.3 L931.823,427.9 C933.823,430.3 940.623,430.3 942.223,427.5 C942.223,418.7 940.623,403.5 940.623,389.1 C940.623,373.9 942.223,358.3 942.223,348.7 C940.623,345.9 933.823,345.9 931.823,348.3 L928.623,364.7 C926.623,374.7 923.823,377.1 919.023,378.7 C914.223,380.3 901.823,381.1 885.023,381.1 L861.823,381.1 C849.823,381.1 848.623,381.1 848.623,369.9 L848.623,289.9 C848.623,274.7 848.623,273.9 860.623,273.9 L889.423,273.9 C907.023,273.9 919.823,274.3 928.223,276.3 C949.023,281.5 952.623,295.5 958.623,314.3 C960.623,316.7 967.023,315.9 968.623,313.5 C967.023,295.9 964.623,267.1 962.223,260.3 C957.423,261.5 933.823,261.5 908.223,261.5 L833.023,261.5 C816.623,261.5 803.023,261.1 785.823,260.3 C783.423,261.5 782.623,268.7 785.023,270.3 L791.423,271.1 C815.023,273.9 815.823,279.9 815.823,321.5 z" fill="#FFFFFF"/>
    <path d="M1165.423,291.5 C1165.423,273.9 1166.224,253.9 1166.623,241.9 C1165.823,240.3 1164.224,239.5 1162.623,239.5 C1148.224,247.1 1129.423,253.1 1119.423,256.3 C1117.423,257.5 1117.423,263.1 1119.423,264.3 L1123.423,266.7 C1135.423,273.9 1135.823,276.3 1135.823,299.9 L1135.823,360.3 C1135.823,363.5 1135.423,365.9 1133.423,365.9 C1129.023,364.3 1120.224,362.3 1106.623,362.3 C1052.224,362.3 1009.823,398.3 1009.823,454.3 C1009.823,496.3 1039.423,531.1 1083.823,531.1 C1103.023,531.1 1116.623,524.7 1134.224,512.7 L1135.823,512.7 C1136.623,514.3 1136.623,519.1 1136.623,525.1 L1136.623,531.9 C1136.623,533.9 1138.623,535.1 1141.023,535.1 C1152.224,530.7 1177.023,524.7 1193.823,522.3 C1197.423,520.3 1197.023,510.3 1194.224,509.5 C1188.224,511.5 1181.423,513.5 1177.023,513.5 C1165.823,513.5 1165.423,498.7 1165.423,467.1 z M1135.823,485.9 C1135.823,492.3 1135.423,498.3 1133.023,500.7 C1126.623,507.1 1113.023,511.9 1102.224,511.9 C1063.023,511.9 1042.623,477.5 1042.623,441.1 C1042.623,406.3 1061.423,374.7 1097.823,374.7 C1113.423,374.7 1125.423,383.1 1131.423,391.5 C1134.224,395.5 1135.823,399.1 1135.823,407.1 z" fill="#FFFFFF"/>
    <path d="M1345.423,376.7 C1336.623,376.7 1333.823,375.9 1321.023,370.3 C1311.823,366.3 1297.823,362.3 1282.623,362.3 C1247.023,362.3 1217.423,388.3 1217.423,422.7 C1217.423,448.3 1233.823,463.9 1247.423,471.1 C1247.423,473.1 1245.423,476.3 1243.423,478.7 C1236.623,485.9 1229.023,492.7 1222.223,497.1 C1217.823,500.3 1216.223,501.9 1216.223,503.9 C1216.223,517.9 1229.823,531.5 1245.423,535.5 C1249.023,537.9 1245.823,541.5 1242.223,545.1 C1233.023,554.3 1221.823,564.7 1215.023,571.9 C1212.223,575.1 1210.623,580.3 1210.623,586.7 C1210.623,606.7 1227.823,633.1 1277.023,633.1 C1329.023,633.1 1376.623,601.1 1376.623,557.5 C1376.623,517.5 1343.023,513.5 1320.623,513.5 C1303.023,513.5 1286.623,514.7 1273.023,514.7 C1254.223,514.7 1245.023,507.1 1245.023,497.9 C1245.023,486.3 1257.823,478.7 1262.623,475.9 C1267.423,476.3 1273.023,477.1 1280.223,477.1 C1331.023,477.1 1347.423,441.1 1347.423,413.5 C1347.423,406.7 1347.423,399.9 1346.623,393.1 L1375.423,393.1 C1381.423,392.3 1382.223,378.7 1377.823,376.7 z M1307.823,538.3 C1336.623,538.3 1353.423,548.7 1353.423,573.1 C1353.423,595.9 1329.823,615.9 1294.223,615.9 C1257.823,615.9 1240.623,597.9 1240.623,576.3 C1240.623,561.1 1250.223,548.7 1259.823,542.7 C1265.423,539.1 1281.423,538.3 1294.223,538.3 z M1286.223,465.5 C1267.023,465.5 1249.823,447.1 1249.823,418.7 C1249.823,391.5 1264.223,373.9 1283.423,373.9 C1307.823,373.9 1319.023,396.7 1319.023,423.9 C1319.023,448.3 1307.823,465.5 1286.223,465.5 z" fill="#FFFFFF"/>
    <path d="M1503.823,423.1 C1520.623,423.1 1526.223,422.7 1527.423,420.3 C1528.223,418.7 1529.023,415.5 1529.023,409.9 C1529.023,385.9 1506.623,362.3 1472.223,362.3 C1424.223,362.3 1391.823,403.5 1391.823,452.7 C1391.823,470.3 1396.623,489.1 1408.623,504.7 C1420.223,519.9 1440.623,531.1 1466.623,531.1 C1487.423,531.1 1516.223,521.1 1529.423,493.9 C1529.023,490.3 1526.223,487.9 1522.223,489.1 C1509.823,504.7 1498.623,508.7 1485.423,508.7 C1442.623,508.7 1419.023,474.3 1419.023,433.9 C1419.023,423.9 1419.423,423.1 1429.823,423.1 z M1426.223,411.1 C1423.423,411.1 1423.423,409.9 1423.423,409.1 C1423.823,395.9 1444.223,374.3 1467.823,374.3 C1491.023,374.3 1498.623,388.3 1498.623,399.5 C1498.623,404.7 1497.423,406.3 1496.223,407.1 C1493.023,409.5 1484.223,411.1 1454.623,411.1 z" fill="#FFFFFF"/>
    <path d="M1605.423,497.1 C1608.623,505.5 1615.023,521.9 1617.423,530.3 C1618.623,531.5 1620.623,531.9 1622.223,531.9 C1624.223,531.9 1625.823,531.5 1627.023,530.3 C1630.223,521.1 1635.823,506.7 1643.023,489.5 L1663.823,439.5 C1666.623,432.3 1672.223,419.9 1672.623,419.9 C1673.023,419.9 1679.023,433.1 1681.823,440.3 L1701.023,486.3 C1707.823,502.3 1715.023,523.1 1717.423,530.3 C1718.623,531.5 1720.223,531.9 1721.823,531.9 C1723.823,531.9 1725.423,531.5 1727.023,530.3 C1730.223,519.9 1735.023,508.3 1740.623,493.9 C1748.223,473.5 1767.423,425.5 1778.223,403.1 C1786.623,385.5 1790.223,379.9 1799.823,377.9 L1807.823,376.3 C1810.223,374.3 1809.823,368.3 1806.623,366.7 C1797.823,367.5 1788.223,367.9 1780.623,367.9 C1770.623,367.9 1760.623,367.5 1749.023,366.7 C1746.223,367.9 1745.423,374.3 1748.623,376.3 L1758.623,377.9 C1763.423,378.7 1765.823,380.7 1765.823,383.1 C1765.823,385.9 1765.023,391.1 1761.823,400.3 C1755.823,417.1 1739.823,459.5 1734.623,471.1 C1731.823,477.5 1729.823,481.5 1729.023,482.3 C1727.823,481.5 1726.223,477.1 1723.823,471.1 C1719.423,460.3 1697.823,409.5 1693.423,396.3 C1688.623,382.3 1687.823,381.1 1703.823,377.9 L1712.223,376.3 C1714.623,374.3 1714.623,367.9 1711.023,366.7 C1697.423,367.5 1685.423,367.9 1673.023,367.9 C1662.623,367.9 1649.823,367.5 1639.823,366.7 C1636.623,367.9 1635.823,373.9 1638.623,376.3 L1645.023,377.9 C1653.823,379.9 1659.823,383.1 1663.423,391.9 C1665.423,397.1 1665.023,402.3 1659.823,415.1 L1640.223,463.5 C1635.423,475.1 1632.223,481.9 1631.023,482.7 C1631.023,481.9 1627.423,474.7 1623.823,465.5 L1599.023,404.3 C1594.623,393.5 1592.623,385.9 1592.623,383.5 C1592.623,381.1 1595.823,378.7 1601.423,377.9 L1610.623,376.3 C1613.423,374.3 1613.023,368.3 1609.823,366.7 C1599.023,367.5 1587.423,367.9 1575.023,367.9 C1563.023,367.9 1551.823,367.5 1539.423,366.7 C1535.823,368.3 1536.223,374.3 1538.223,376.3 L1544.623,377.9 C1554.623,380.3 1559.423,384.3 1568.623,406.7 z" fill="#FFFFFF"/>
    <path d="M1901.823,362.3 C1854.623,362.3 1816.623,398.3 1816.623,448.7 C1816.623,498.7 1852.623,531.1 1898.623,531.1 C1948.623,531.1 1983.023,495.1 1983.023,445.1 C1983.023,395.9 1946.623,362.3 1901.823,362.3 z M1948.623,451.5 C1948.623,482.3 1937.823,519.1 1902.623,519.1 C1867.423,519.1 1851.023,479.9 1851.023,443.5 C1851.023,399.5 1870.623,374.3 1897.023,374.3 C1935.023,374.3 1948.623,417.5 1948.623,451.5 z" fill="#FFFFFF"/>
    <path d="M2096.223,362.3 C2049.023,362.3 2011.023,398.3 2011.023,448.7 C2011.023,498.7 2047.023,531.1 2093.023,531.1 C2143.023,531.1 2177.424,495.1 2177.424,445.1 C2177.424,395.9 2141.023,362.3 2096.223,362.3 z M2143.023,451.5 C2143.023,482.3 2132.223,519.1 2097.023,519.1 C2061.823,519.1 2045.423,479.9 2045.423,443.5 C2045.423,399.5 2065.023,374.3 2091.424,374.3 C2129.424,374.3 2143.023,417.5 2143.023,451.5 z" fill="#FFFFFF"/>
    <path d="M2361.023,291.5 C2361.023,273.9 2361.823,253.9 2362.223,241.9 C2361.424,240.3 2359.823,239.5 2358.223,239.5 C2343.823,247.1 2325.023,253.1 2315.023,256.3 C2313.023,257.5 2313.023,263.1 2315.023,264.3 L2319.023,266.7 C2331.023,273.9 2331.424,276.3 2331.424,299.9 L2331.424,360.3 C2331.424,363.5 2331.023,365.9 2329.023,365.9 C2324.624,364.3 2315.823,362.3 2302.223,362.3 C2247.823,362.3 2205.424,398.3 2205.424,454.3 C2205.424,496.3 2235.023,531.1 2279.424,531.1 C2298.624,531.1 2312.223,524.7 2329.823,512.7 L2331.424,512.7 C2332.223,514.3 2332.223,519.1 2332.223,525.1 L2332.223,531.9 C2332.223,533.9 2334.223,535.1 2336.624,535.1 C2347.823,530.7 2372.624,524.7 2389.424,522.3 C2393.023,520.3 2392.624,510.3 2389.823,509.5 C2383.823,511.5 2377.023,513.5 2372.624,513.5 C2361.424,513.5 2361.023,498.7 2361.023,467.1 z M2331.424,485.9 C2331.424,492.3 2331.023,498.3 2328.624,500.7 C2322.223,507.1 2308.624,511.9 2297.823,511.9 C2258.624,511.9 2238.223,477.5 2238.223,441.1 C2238.223,406.3 2257.023,374.7 2293.424,374.7 C2309.023,374.7 2321.023,383.1 2327.023,391.5 C2329.823,395.5 2331.424,399.1 2331.424,407.1 z" fill="#FFFFFF"/>
    <path d="M2669.823,457.9 C2669.823,419.9 2645.023,396.7 2619.823,381.1 L2587.823,361.1 C2573.023,351.9 2553.823,335.1 2553.823,311.9 C2553.823,293.5 2562.223,267.5 2601.423,267.5 C2639.823,267.5 2650.624,293.5 2655.823,312.7 C2657.823,315.1 2664.223,313.9 2665.823,311.5 C2665.823,294.7 2662.223,272.3 2658.624,262.7 C2655.423,262.7 2649.823,261.9 2644.624,260.3 C2634.223,257.5 2619.823,255.1 2607.423,255.1 C2555.423,255.1 2525.823,285.9 2525.823,323.9 C2525.823,356.7 2549.023,379.5 2569.023,392.7 L2607.023,417.5 C2636.223,436.3 2639.823,455.9 2639.823,473.5 C2639.823,497.5 2623.423,519.5 2589.823,519.5 C2543.423,519.5 2527.023,480.3 2521.023,459.9 C2519.423,457.5 2513.423,458.3 2511.423,461.1 C2512.223,479.9 2517.423,508.3 2522.223,517.1 C2529.823,521.5 2551.023,531.9 2584.624,531.9 C2636.624,531.9 2669.823,501.9 2669.823,457.9 z" fill="#FFFFFF"/>
    <path d="M2733.023,459.9 C2707.424,469.1 2699.823,478.3 2699.823,493.9 C2699.823,505.1 2704.624,515.1 2712.223,521.9 C2719.023,527.9 2728.624,531.1 2740.223,531.1 C2751.424,531.1 2760.223,525.9 2769.023,521.1 C2777.023,516.7 2781.823,513.1 2784.624,513.1 C2787.023,513.1 2789.424,516.3 2791.023,518.7 C2797.823,527.5 2807.424,531.1 2817.023,531.1 C2836.624,531.1 2850.624,515.5 2850.624,513.5 C2850.624,510.7 2849.424,508.3 2847.823,508.3 C2846.624,508.3 2844.624,509.9 2842.624,511.1 C2840.223,512.3 2836.624,513.5 2832.624,513.5 C2817.023,513.5 2813.424,497.1 2814.223,478.7 L2816.624,409.1 C2817.823,379.1 2803.823,362.3 2775.023,362.3 C2745.823,362.3 2700.624,390.7 2700.624,411.5 C2700.624,415.1 2702.624,417.1 2706.223,417.1 C2712.223,417.1 2723.023,414.3 2729.023,409.5 C2732.223,407.1 2732.624,402.3 2733.023,395.9 C2733.823,383.5 2747.424,377.9 2758.624,377.9 C2783.424,377.9 2788.223,397.9 2787.823,412.7 L2787.424,431.1 C2787.424,437.1 2786.624,440.7 2780.624,442.7 z M2730.624,489.1 C2730.624,473.5 2742.223,467.5 2765.823,459.5 C2773.023,457.1 2779.823,455.5 2782.223,455.5 C2784.624,455.5 2786.223,456.3 2786.223,460.7 L2785.424,484.3 C2785.023,492.7 2785.023,498.3 2780.223,503.1 C2776.223,507.1 2763.823,513.1 2755.823,513.1 C2735.424,513.1 2730.624,495.9 2730.624,489.1 z" fill="#FFFFFF"/>
    <path d="M2886.624,480.7 C2886.624,509.5 2886.224,513.5 2871.424,515.5 L2863.023,516.7 C2860.224,518.7 2861.023,525.5 2863.823,526.7 C2875.023,525.9 2887.023,525.5 2901.424,525.5 C2915.424,525.5 2927.023,525.9 2939.023,526.7 C2941.823,525.5 2942.624,518.7 2939.823,516.7 L2931.424,515.5 C2917.023,513.5 2916.224,509.5 2916.224,480.7 L2916.224,408.7 C2916.224,392.3 2917.023,373.1 2917.823,359.1 C2917.424,357.5 2915.823,356.7 2913.823,356.7 C2904.624,362.7 2881.823,373.1 2872.624,376.3 C2870.624,377.5 2870.624,381.9 2872.224,383.5 L2875.823,385.9 C2886.624,393.1 2886.624,395.1 2886.624,410.7 z M2899.823,275.9 C2887.823,275.9 2878.224,284.3 2878.224,297.5 C2878.224,308.3 2886.224,317.5 2898.624,317.5 C2909.823,317.5 2919.823,311.1 2919.823,296.7 C2919.823,285.5 2911.823,275.9 2899.823,275.9 z" fill="#FFFFFF"/>
    <path d="M3015.023,291.5 C3015.023,273.9 3015.823,253.9 3016.224,241.9 C3015.424,240.3 3013.823,239.5 3012.224,239.5 C2997.823,247.1 2979.023,253.1 2969.023,256.3 C2967.023,257.5 2967.023,263.1 2969.023,264.3 L2973.023,266.7 C2985.023,273.9 2985.424,276.3 2985.424,299.9 L2985.424,480.7 C2985.424,509.5 2985.023,513.5 2970.224,515.5 L2961.023,516.7 C2958.224,518.7 2959.023,525.5 2961.823,526.7 C2973.823,525.9 2985.823,525.5 3000.224,525.5 C3014.224,525.5 3025.823,525.9 3039.023,526.7 C3041.823,525.5 3042.624,518.7 3039.823,516.7 L3030.224,515.5 C3015.823,513.5 3015.023,509.5 3015.023,480.7 z" fill="#FFFFFF"/>
    <path d="M3088.223,480.7 C3088.223,509.5 3087.823,513.5 3073.023,515.5 L3064.624,516.7 C3061.823,518.7 3062.624,525.5 3065.423,526.7 C3076.624,525.9 3088.624,525.5 3103.023,525.5 C3117.023,525.5 3128.624,525.9 3140.624,526.7 C3143.423,525.5 3144.223,518.7 3141.423,516.7 L3133.023,515.5 C3118.624,513.5 3117.823,509.5 3117.823,480.7 L3117.823,408.7 C3117.823,392.3 3118.624,373.1 3119.423,359.1 C3119.023,357.5 3117.423,356.7 3115.423,356.7 C3106.223,362.7 3083.423,373.1 3074.223,376.3 C3072.223,377.5 3072.223,381.9 3073.823,383.5 L3077.423,385.9 C3088.223,393.1 3088.223,395.1 3088.223,410.7 z M3101.423,275.9 C3089.423,275.9 3079.823,284.3 3079.823,297.5 C3079.823,308.3 3087.823,317.5 3100.223,317.5 C3111.423,317.5 3121.423,311.1 3121.423,296.7 C3121.423,285.5 3113.423,275.9 3101.423,275.9 z" fill="#FFFFFF"/>
    <path d="M3191.023,480.7 C3191.023,509.5 3190.623,513.5 3175.823,515.5 L3167.423,516.7 C3164.623,518.7 3165.423,525.5 3168.223,526.7 C3179.423,525.9 3191.423,525.5 3205.823,525.5 C3219.823,525.5 3231.423,525.9 3242.223,526.7 C3245.023,525.5 3245.823,518.7 3243.023,516.7 L3235.823,515.5 C3221.423,513.1 3220.623,509.5 3220.623,480.7 L3220.623,419.5 C3220.623,407.9 3221.423,402.3 3226.623,395.5 C3232.223,387.9 3245.423,381.5 3260.623,381.5 C3287.823,381.5 3298.223,398.3 3298.223,421.1 L3298.223,480.7 C3298.223,509.5 3297.823,513.1 3283.023,515.5 L3275.423,516.7 C3272.623,518.7 3273.423,525.5 3276.223,526.7 C3287.023,525.9 3299.023,525.5 3313.423,525.5 C3327.423,525.5 3339.023,525.9 3351.023,526.7 C3353.823,525.5 3354.623,518.7 3351.823,516.7 L3343.023,515.5 C3328.623,513.5 3327.823,509.5 3327.823,480.7 L3327.823,411.9 C3327.823,385.1 3314.223,362.3 3281.023,362.3 C3260.623,362.3 3241.823,372.3 3225.023,382.7 C3222.223,382.7 3220.623,380.7 3220.623,378.3 C3220.623,374.7 3220.623,368.7 3221.423,359.5 C3220.623,357.5 3218.623,356.7 3217.023,356.7 C3209.023,362.7 3186.223,373.1 3177.023,376.3 C3175.023,377.5 3175.023,381.9 3176.623,383.5 L3180.223,385.9 C3191.023,393.1 3191.023,395.1 3191.023,410.7 z" fill="#FFFFFF"/>
    <path d="M3507.823,376.7 C3499.023,376.7 3496.223,375.9 3483.423,370.3 C3474.223,366.3 3460.223,362.3 3445.023,362.3 C3409.423,362.3 3379.823,388.3 3379.823,422.7 C3379.823,448.3 3396.223,463.9 3409.823,471.1 C3409.823,473.1 3407.823,476.3 3405.823,478.7 C3399.023,485.9 3391.423,492.7 3384.623,497.1 C3380.223,500.3 3378.623,501.9 3378.623,503.9 C3378.623,517.9 3392.223,531.5 3407.823,535.5 C3411.423,537.9 3408.223,541.5 3404.623,545.1 C3395.423,554.3 3384.223,564.7 3377.423,571.9 C3374.623,575.1 3373.023,580.3 3373.023,586.7 C3373.023,606.7 3390.223,633.1 3439.423,633.1 C3491.423,633.1 3539.023,601.1 3539.023,557.5 C3539.023,517.5 3505.423,513.5 3483.023,513.5 C3465.423,513.5 3449.023,514.7 3435.423,514.7 C3416.623,514.7 3407.423,507.1 3407.423,497.9 C3407.423,486.3 3420.223,478.7 3425.023,475.9 C3429.823,476.3 3435.423,477.1 3442.623,477.1 C3493.423,477.1 3509.823,441.1 3509.823,413.5 C3509.823,406.7 3509.823,399.9 3509.023,393.1 L3537.823,393.1 C3543.823,392.3 3544.623,378.7 3540.223,376.7 z M3470.223,538.3 C3499.023,538.3 3515.823,548.7 3515.823,573.1 C3515.823,595.9 3492.223,615.9 3456.623,615.9 C3420.223,615.9 3403.023,597.9 3403.023,576.3 C3403.023,561.1 3412.623,548.7 3422.223,542.7 C3427.823,539.1 3443.823,538.3 3456.623,538.3 z M3448.623,465.5 C3429.423,465.5 3412.223,447.1 3412.223,418.7 C3412.223,391.5 3426.623,373.9 3445.823,373.9 C3470.223,373.9 3481.423,396.7 3481.423,423.9 C3481.423,448.3 3470.223,465.5 3448.623,465.5 z" fill="#FFFFFF"/>
    <path d="M3815.023,457.9 C3815.023,419.9 3790.223,396.7 3765.023,381.1 L3733.023,361.1 C3718.223,351.9 3699.023,335.1 3699.023,311.9 C3699.023,293.5 3707.424,267.5 3746.624,267.5 C3785.023,267.5 3795.823,293.5 3801.023,312.7 C3803.023,315.1 3809.424,313.9 3811.023,311.5 C3811.023,294.7 3807.424,272.3 3803.823,262.7 C3800.624,262.7 3795.023,261.9 3789.823,260.3 C3779.424,257.5 3765.023,255.1 3752.624,255.1 C3700.624,255.1 3671.023,285.9 3671.023,323.9 C3671.023,356.7 3694.223,379.5 3714.223,392.7 L3752.223,417.5 C3781.424,436.3 3785.023,455.9 3785.023,473.5 C3785.023,497.5 3768.624,519.5 3735.023,519.5 C3688.624,519.5 3672.223,480.3 3666.223,459.9 C3664.624,457.5 3658.624,458.3 3656.624,461.1 C3657.424,479.9 3662.624,508.3 3667.424,517.1 C3675.023,521.5 3696.223,531.9 3729.823,531.9 C3781.823,531.9 3815.023,501.9 3815.023,457.9 z" fill="#FFFFFF"/>
    <path d="M3947.023,362.3 C3880.624,362.3 3850.224,408.3 3850.224,451.5 C3850.224,477.5 3859.424,497.1 3873.424,510.7 C3887.424,524.3 3907.023,531.1 3928.224,531.1 C3951.424,531.1 3981.424,519.9 3995.023,490.3 C3994.624,486.7 3991.023,483.9 3987.823,484.7 C3978.624,498.3 3966.624,508.7 3943.424,508.7 C3900.624,508.7 3879.023,471.5 3879.023,440.3 C3879.023,397.9 3906.224,375.9 3934.224,375.9 C3950.624,375.9 3965.424,386.3 3974.224,397.1 C3975.823,399.1 3977.823,399.9 3979.823,399.9 C3984.624,399.9 3988.624,392.3 3988.624,385.1 C3988.624,378.3 3985.823,371.9 3982.624,369.1 C3971.823,364.3 3956.224,362.3 3947.023,362.3 z" fill="#FFFFFF"/>
    <path d="M4031.024,480.7 C4031.024,509.5 4030.624,513.9 4015.824,515.5 L4005.824,516.7 C4003.024,518.7 4003.824,525.5 4006.624,526.7 C4019.424,525.9 4031.424,525.5 4045.824,525.5 C4059.824,525.5 4071.424,525.9 4083.424,526.7 C4086.224,525.5 4087.024,518.3 4084.224,516.7 L4075.824,515.5 C4061.424,513.5 4060.624,509.5 4060.624,480.7 L4060.624,413.5 C4060.624,399.5 4061.824,397.5 4069.024,391.5 C4076.224,385.5 4086.624,380.7 4100.224,380.7 C4125.824,380.7 4138.224,397.9 4138.224,423.5 L4138.224,480.7 C4138.224,509.5 4137.824,513.1 4123.023,515.5 L4115.023,516.7 C4112.224,518.7 4113.023,525.5 4115.824,526.7 C4126.624,525.9 4138.624,525.5 4153.023,525.5 C4167.023,525.5 4178.624,525.9 4193.023,526.7 C4195.824,525.5 4196.624,518.7 4193.824,516.7 L4183.023,515.5 C4168.624,513.9 4167.824,509.5 4167.824,480.7 L4167.824,413.9 C4167.824,385.9 4154.224,362.3 4116.224,362.3 C4095.824,362.3 4076.624,371.9 4062.224,383.1 C4061.024,382.3 4060.624,379.1 4060.624,375.5 L4060.624,291.5 C4060.624,273.9 4061.424,253.9 4061.824,241.9 C4061.024,240.3 4059.424,239.5 4057.824,239.5 C4043.424,247.1 4024.624,253.1 4014.624,256.3 C4012.624,257.5 4012.624,263.1 4014.624,264.3 L4018.624,266.7 C4030.624,273.9 4031.024,276.3 4031.024,299.9 z" fill="#FFFFFF"/>
    <path d="M4301.023,362.3 C4253.823,362.3 4215.823,398.3 4215.823,448.7 C4215.823,498.7 4251.823,531.1 4297.823,531.1 C4347.823,531.1 4382.224,495.1 4382.224,445.1 C4382.224,395.9 4345.823,362.3 4301.023,362.3 z M4347.823,451.5 C4347.823,482.3 4337.023,519.1 4301.823,519.1 C4266.624,519.1 4250.224,479.9 4250.224,443.5 C4250.224,399.5 4269.823,374.3 4296.224,374.3 C4334.224,374.3 4347.823,417.5 4347.823,451.5 z" fill="#FFFFFF"/>
    <path d="M4495.423,362.3 C4448.224,362.3 4410.224,398.3 4410.224,448.7 C4410.224,498.7 4446.224,531.1 4492.224,531.1 C4542.224,531.1 4576.624,495.1 4576.624,445.1 C4576.624,395.9 4540.224,362.3 4495.423,362.3 z M4542.224,451.5 C4542.224,482.3 4531.423,519.1 4496.224,519.1 C4461.023,519.1 4444.624,479.9 4444.624,443.5 C4444.624,399.5 4464.224,374.3 4490.624,374.3 C4528.624,374.3 4542.224,417.5 4542.224,451.5 z" fill="#FFFFFF"/>
    <path d="M4655.424,291.5 C4655.424,273.9 4656.224,253.9 4656.624,241.9 C4655.824,240.3 4654.224,239.5 4652.624,239.5 C4638.224,247.1 4619.424,253.1 4609.424,256.3 C4607.424,257.5 4607.424,263.1 4609.424,264.3 L4613.424,266.7 C4625.424,273.9 4625.824,276.3 4625.824,299.9 L4625.824,480.7 C4625.824,509.5 4625.424,513.5 4610.624,515.5 L4601.424,516.7 C4598.624,518.7 4599.424,525.5 4602.224,526.7 C4614.224,525.9 4626.224,525.5 4640.624,525.5 C4654.624,525.5 4666.224,525.9 4679.424,526.7 C4682.224,525.5 4683.023,518.7 4680.224,516.7 L4670.624,515.5 C4656.224,513.5 4655.424,509.5 4655.424,480.7 z" fill="#FFFFFF"/>
  </g>
</svg>
